<?xml version="1.0" encoding="UTF-8"?>
<svg version="1.1" xmlns="http://www.w3.org/2000/svg" width="330" height="615">
<path d="M0 0 C4.42484878 2.21242439 7.19476657 4.94799616 10 9 C11.6084387 13.82531609 11.39221243 17.80271995 9.8125 22.625 C9.544375 23.73875 9.27625 24.8525 9 26 C9.45375 26.68191406 9.9075 27.36382812 10.375 28.06640625 C12.73618132 32.32901964 12.8176421 36.51113364 13.1875 41.3125 C13.26935547 42.24384766 13.35121094 43.17519531 13.43554688 44.13476562 C13.6349871 46.42246232 13.82275822 48.71049448 14 51 C15.175625 51.185625 15.175625 51.185625 16.375 51.375 C19 52 19 52 21 54 C21.91178056 61.0931164 21.47064585 69.73237161 17.0625 75.5625 C15 77 15 77 12 77 C11.9175 77.70125 11.835 78.4025 11.75 79.125 C10.60263558 83.52323027 8.19117306 86.80882694 5 90 C4.53837573 92.43252661 4.53837573 92.43252661 4.375 95.125 C4.30023438 96.03507812 4.22546875 96.94515625 4.1484375 97.8828125 C4.07496094 98.93082031 4.07496094 98.93082031 4 100 C5.86011719 100.09667969 5.86011719 100.09667969 7.7578125 100.1953125 C13.95398053 100.88701163 19.23721128 103.33006468 24.875 105.875 C25.90625 106.32230469 26.9375 106.76960938 28 107.23046875 C36.61633107 111.04370143 36.61633107 111.04370143 39 114 C39 114.66 39 115.32 39 116 C40.11761719 116.16435547 40.11761719 116.16435547 41.2578125 116.33203125 C47.06309092 117.74613753 50.64048666 121.94930551 53.859375 126.8046875 C62.46143776 142.67663516 65.32561078 160.71239915 68.3125 178.3125 C68.44173859 179.06323792 68.57097717 179.81397583 68.70413208 180.58746338 C70.09178326 188.74090282 71.20633593 196.86961203 71.76171875 205.125 C71.81177567 205.80311234 71.86183258 206.48122467 71.91340637 207.17988586 C72.33924982 214.89935086 70.94460558 222.68436113 66.5234375 229.1640625 C62.82695644 232.86054356 58.77939003 234.01437055 53.625 234.234375 C47.51504323 233.68884315 42.62717177 231.38987589 38 227.4375 C36 225 36 225 34 222 C34.14204679 225.25017663 34.28937509 228.50009516 34.4375 231.75 C34.47681641 232.65105469 34.51613281 233.55210937 34.55664062 234.48046875 C34.77661415 239.25220211 35.08085218 243.99424662 35.53125 248.75 C36.15289333 255.91718197 36.10946393 263.06090595 36.0625 270.25 C36.05746786 271.59244622 36.05290802 272.9348943 36.04882812 274.27734375 C36.03717009 277.5182781 36.02080774 280.75911369 36 284 C37.2271875 284.37511719 38.454375 284.75023437 39.71875 285.13671875 C45.88212964 287.19479564 51.65701882 289.98897556 57.5 292.8125 C58.57636719 293.32103516 59.65273437 293.82957031 60.76171875 294.35351562 C67.22310029 297.45828422 73.12804938 300.9024372 79 305 C80.18019612 305.76511113 81.36481909 306.52345677 82.5546875 307.2734375 C112.80109316 326.41763308 112.80109316 326.41763308 116 339 C116.98514273 347.70775583 116.19681599 353.89237701 111 361 C110.29875 362.03125 109.5975 363.0625 108.875 364.125 C92.95864723 381.74493793 62.93905393 383.0893242 41 385 C42.0209375 385.8353125 42.0209375 385.8353125 43.0625 386.6875 C44.0215625 387.8321875 44.0215625 387.8321875 45 389 C44.62109375 391.64453125 44.62109375 391.64453125 44 394 C27.80568718 394.09349076 11.61146207 394.1640023 -4.5830555 394.20724869 C-12.10266269 394.22786354 -19.62210208 394.25596332 -27.14160156 394.30175781 C-33.69651874 394.34165883 -40.25131438 394.36744065 -46.80634964 394.37635398 C-50.27642927 394.38156329 -53.74616123 394.39378394 -57.2161293 394.42292023 C-61.09223132 394.45520193 -64.96799493 394.4559573 -68.84423828 394.45410156 C-69.99150894 394.46848267 -71.1387796 394.48286377 -72.32081604 394.49768066 C-78.46309676 394.46581864 -82.4403229 394.32405141 -87 390 C-88.375 386.25 -88.375 386.25 -89 383 C-89.67353516 382.86013672 -90.34707031 382.72027344 -91.04101562 382.57617188 C-127.89021801 374.76424144 -127.89021801 374.76424144 -138 361 C-142.68393761 353.42832504 -144.32562643 345.68894069 -142.57421875 336.8515625 C-135.44974085 314.73508509 -103.2014238 301.36944096 -84.47265625 291.7265625 C-69.16588858 284 -69.16588858 284 -66 284 C-66.03480469 282.98550781 -66.06960937 281.97101563 -66.10546875 280.92578125 C-66.40509187 267.12283054 -65.27841372 253.49614871 -64.06713867 239.76098633 C-63.96383492 238.57854843 -63.96383492 238.57854843 -63.85844421 237.3722229 C-63.72793365 235.88892716 -63.59445185 234.40588844 -63.45735168 232.92318726 C-63.07262452 228.59004628 -62.94051832 224.34393262 -63 220 C-63.37511719 220.53109375 -63.75023438 221.0621875 -64.13671875 221.609375 C-68.55948784 227.71435601 -72.38503272 232.20824299 -80 234 C-86.37817192 234.61724244 -90.66951589 233.61288367 -96 230 C-100.90966366 225.34873969 -101.97734414 219.20718099 -102.37109375 212.6796875 C-102.93726226 191.05614316 -98.46078266 169.9186608 -92.5 149.25 C-92.31494904 148.60250793 -92.12989807 147.95501587 -91.9392395 147.28790283 C-86.00753835 126.76868111 -86.00753835 126.76868111 -78.5 120.4375 C-77.7678125 119.79683594 -77.035625 119.15617187 -76.28125 118.49609375 C-74 117 -74 117 -71.34375 116.53515625 C-70.18359375 116.27025391 -70.18359375 116.27025391 -69 116 C-68.30717388 114.68007039 -67.64273679 113.34503221 -67 112 C-57.85234797 106.0470135 -44.82057444 100.40634377 -34 99 C-34.21717467 92.1589978 -35.52939242 88.45967897 -39.72265625 83.04296875 C-41 81 -41 81 -41 77 C-41.721875 76.79375 -42.44375 76.5875 -43.1875 76.375 C-46.95533025 74.53294965 -49.45316477 72.92500921 -51 69 C-51.32448584 63.89622273 -51.16808269 59.00357807 -50 54 C-48.12109375 52.04296875 -48.12109375 52.04296875 -46 51 C-45.01 51 -44.02 51 -43 51 C-43.02320312 50.154375 -43.04640625 49.30875 -43.0703125 48.4375 C-43.23317635 38.20034361 -43.00840855 31.53335995 -35.8515625 23.76171875 C-32.4593455 20.53410299 -29.8963625 18.70077518 -25.25 17.8125 C-24.45078125 17.65394531 -23.6515625 17.49539062 -22.828125 17.33203125 C-22.22484375 17.22246094 -21.6215625 17.11289063 -21 17 C-20.9175 15.96875 -20.835 14.9375 -20.75 13.875 C-19.6824647 8.35940096 -17.50407556 5.36083027 -13.375 1.625 C-8.80155451 -0.57702931 -4.99046524 -0.80465156 0 0 Z M-15.7265625 7.1328125 C-17.91807954 10.34614116 -17.93379819 13.16029525 -18 17 C-17.34 17 -16.68 17 -16 17 C-16 17.66 -16 18.32 -16 19 C-16.556875 19.02578125 -17.11375 19.0515625 -17.6875 19.078125 C-25.41752881 19.65265417 -31.16666359 21.65188151 -36.4375 27.5 C-40.44115609 32.30002365 -40.13182142 37.21370384 -40.0625 43.25 C-40.05798828 43.99507812 -40.05347656 44.74015625 -40.04882812 45.5078125 C-40.03709246 47.3385764 -40.0191585 49.16929873 -40 51 C-39.01 50.505 -39.01 50.505 -38 50 C-38 49.34 -38 48.68 -38 48 C-31.664629 47.92393829 -25.32937576 47.87139543 -18.99365234 47.83520508 C-16.83833414 47.82011818 -14.68304664 47.79964611 -12.52783203 47.77368164 C-9.42993596 47.73729456 -6.33244577 47.72027261 -3.234375 47.70703125 C-2.27070007 47.69154739 -1.30702515 47.67606354 -0.31414795 47.66011047 C0.58648376 47.65988388 1.48711548 47.65965729 2.41503906 47.65942383 C3.20557678 47.65276199 3.9961145 47.64610016 4.81060791 47.63923645 C7.53323503 48.08786538 8.93534648 49.21818555 11 51 C11.31006659 42.90381687 11.26227294 34.16693302 7 27 C6.34 26.67 5.68 26.34 5 26 C5.309375 25.401875 5.61875 24.80375 5.9375 24.1875 C7.99078976 19.96013873 8.31695924 16.67514885 8 12 C6.75588046 8.59504127 5.61690397 6.56082179 2.9375 4.125 C-4.02242798 1.45949567 -10.28746782 1.79586045 -15.7265625 7.1328125 Z M-47 55 C-47.65539953 59.33061462 -47.97668549 63.3826316 -45.66015625 67.21875 C-44.17924373 68.91918603 -42.67634298 70.49328696 -41 72 C-41.66 72.66 -42.32 73.32 -43 74 C-41.515 74.495 -41.515 74.495 -40 75 C-39.30562253 76.99054876 -38.64389782 78.99255385 -38 81 C-36.68568305 83.01254782 -35.35278115 85.01310269 -34 87 C-31.70412197 91.47092037 -31.4088142 96.06195485 -31 101 C-31.96873047 101.185625 -31.96873047 101.185625 -32.95703125 101.375 C-39.93619925 102.90258807 -46.35281581 105.19056174 -52.9375 107.9375 C-54.16206909 108.44120117 -54.16206909 108.44120117 -55.41137695 108.95507812 C-62.88926783 112.0348681 -62.88926783 112.0348681 -68 118 C-69.0725 118.433125 -70.145 118.86625 -71.25 119.3125 C-77.97939154 122.08665733 -81.69716558 127.76544324 -85 134 C-86.56530979 137.89261267 -87.80052835 141.85631676 -89 145.875 C-89.3417627 147.00397705 -89.68352539 148.1329541 -90.03564453 149.29614258 C-93.57577385 161.36749908 -95.96436657 173.59678756 -98 186 C-98.13132324 186.78004395 -98.26264648 187.56008789 -98.39794922 188.36376953 C-100.23025244 199.46295271 -102.45907482 213.25248633 -98 224 C-94.7625974 228.00415584 -91.64389201 230.56698462 -86.51953125 231.40625 C-80.33648243 231.62038156 -76.13860211 230.87722848 -71.1484375 227.12109375 C-66.98143952 223.00713029 -63.73483914 218.1641513 -61 213 C-61 212.01 -61 211.02 -61 210 C-60.34 210 -59.68 210 -59 210 C-59.08040527 210.95438965 -59.16081055 211.9087793 -59.24365234 212.89208984 C-60.04042037 222.3597182 -60.82895892 231.82800566 -61.61083984 241.296875 C-61.85133833 244.20850608 -62.09355592 247.11997946 -62.33837891 250.03125 C-63.86887457 267.98906696 -63.86887457 267.98906696 -64 286 C-65.22976562 286.37253906 -66.45953125 286.74507812 -67.7265625 287.12890625 C-73.87687771 289.18581565 -79.58976851 292.02820596 -85.375 294.9375 C-86.51388672 295.50944092 -87.65277344 296.08138184 -88.82617188 296.6706543 C-102.76346258 303.7811376 -116.12930375 311.74593553 -128 322 C-128.66257812 322.53109375 -129.32515625 323.0621875 -130.0078125 323.609375 C-134.64306439 327.37188071 -138.07256596 331.21769788 -140 337 C-140.82457147 346.05850662 -140.49541701 353.51602134 -135 361 C-126.15202578 371.23749442 -112.966488 374.95472092 -100.25 377.875 C-98.96867187 378.18179687 -97.68734375 378.48859375 -96.3671875 378.8046875 C-93.24765384 379.54965076 -90.12562729 380.28111855 -87 381 C-86.3915625 380.22140625 -85.783125 379.4428125 -85.15625 378.640625 C-81.96436817 374.73172623 -79.03097339 371.90664185 -74 371 C-64.44537358 370.52644709 -54.82892168 371.18597257 -45.28955078 371.73193359 C-44.37415527 371.78043457 -43.45875977 371.82893555 -42.515625 371.87890625 C-41.28247559 371.94960327 -41.28247559 371.94960327 -40.02441406 372.02172852 C-37.92914268 372.1468998 -37.92914268 372.1468998 -36 371 C-35.1468673 368.5663267 -34.39467687 366.16360633 -33.6875 363.6875 C-31.80724259 357.3516799 -29.59756619 351.30958025 -26.91796875 345.2578125 C-25.87445501 343.0974278 -25.87445501 343.0974278 -26 341 C-18.23054711 343.83209089 -10.88550768 346.9292361 -3.65625 350.9609375 C-0.60137092 352.15593432 0.90928888 351.95184944 4 351 C4 350.34 4 349.68 4 349 C4.66 349 5.32 349 6 349 C6.08378906 349.70769531 6.16757813 350.41539062 6.25390625 351.14453125 C9.67721826 364.24631699 25.68783436 375.98464252 35 385 C35.66 384.34 36.32 383.68 37 383 C39.43579102 382.56103516 39.43579102 382.56103516 42.50390625 382.2890625 C44.19132935 382.12700317 44.19132935 382.12700317 45.9128418 381.96166992 C47.117229 381.85056885 48.32161621 381.73946777 49.5625 381.625 C70.04303612 379.52301839 93.554522 376.38351888 108.3125 360.625 C112.05328841 355.99743069 113.74430396 351.38649636 114.375 345.5 C113.42064734 336.59270852 109.24830499 329.27304809 102.27099609 323.59228516 C97.33143929 319.83960957 92.18559409 316.40066877 87 313 C86.32727051 312.55479004 85.65454102 312.10958008 84.96142578 311.65087891 C60.9501884 294.61005191 60.9501884 294.61005191 34 286 C34 280.72 34 275.44 34 270 C33.34 270 32.68 270 32 270 C32.33256302 269.28261154 32.66512604 268.56522308 33.00776672 267.82609558 C34.06756624 264.80755669 34.13376064 262.94665484 33.87573242 259.7824707 C33.79872604 258.76824539 33.72171967 257.75402008 33.64237976 256.70906067 C33.54769913 255.62557846 33.45301849 254.54209625 33.35546875 253.42578125 C33.26622635 252.30560104 33.17698395 251.18542084 33.08503723 250.03129578 C32.89453656 247.66811334 32.69833231 245.3053847 32.49682617 242.94311523 C32.18784118 239.31650446 31.89612133 235.6888234 31.60742188 232.06054688 C31.42027579 229.76554283 31.23215824 227.47061775 31.04296875 225.17578125 C30.91005684 223.5414489 30.91005684 223.5414489 30.77445984 221.87409973 C30.64476555 220.36694649 30.64476555 220.36694649 30.51245117 218.8293457 C30.40014412 217.49961479 30.40014412 217.49961479 30.28556824 216.14302063 C30.11191717 213.95287389 30.11191717 213.95287389 29 212 C31.88099774 214.54857492 33.88559715 217.28164076 35.9375 220.5 C38.88079699 224.99629289 41.43739228 228.31663794 46.8125 229.75 C47.534375 229.8325 48.25625 229.915 49 230 C48.34 229.525625 47.68 229.05125 47 228.5625 C35.58288455 218.81038055 30.78112328 207.86443192 26.625 193.8125 C24.49444127 186.61018096 22.67402278 180.93013284 16.69921875 175.9765625 C11.90504508 170.39989151 12.59413293 161.45747044 12.375 154.5 C12.33632812 153.48679687 12.29765625 152.47359375 12.2578125 151.4296875 C12.16436381 148.95329716 12.07860127 146.47689849 12 144 C14.4375 144.375 14.4375 144.375 17 145 C18.41046571 147.82093143 18.32510462 150.58980434 18.5234375 153.7109375 C19.09045381 156.43447484 20.21080241 157.90462956 22 160 C21.98952637 159.42258057 21.97905273 158.84516113 21.96826172 158.25024414 C21.77120402 145.65725967 22.1485918 133.46394449 24 121 C27.465 120.505 27.465 120.505 31 120 C31.66 121.32 32.32 122.64 33 124 C33.99 124 34.98 124 36 124 C35.67 140.83 35.34 157.66 35 175 C35.66 175 36.32 175 37 175 C37.33 157.18 37.66 139.36 38 121 C41.75635569 121.75127114 43.83210307 122.24005726 47 124 C44.1303566 120.97093197 41.73178823 118.80570398 38 117 C37.39849121 116.36787598 36.79698242 115.73575195 36.17724609 115.08447266 C33.90983717 112.91367905 32.10391088 111.91487023 29.2265625 110.7109375 C27.8653125 110.13472656 27.8653125 110.13472656 26.4765625 109.546875 C25.53554687 109.16015625 24.59453125 108.7734375 23.625 108.375 C22.22507813 107.78332031 22.22507813 107.78332031 20.796875 107.1796875 C11.24470037 103.02295938 11.24470037 103.02295938 1 102 C1.06029967 100.08247047 1.14916707 98.16582574 1.25 96.25 C1.29640625 95.18265625 1.3428125 94.1153125 1.390625 93.015625 C2.12164109 89.39803257 3.35073229 88.46431883 6 86 C7.097043 83.53799084 7.097043 83.53799084 7.875 80.9375 C9.61052087 76.23368748 9.61052087 76.23368748 13.125 74.125 C14.07375 73.75375 15.0225 73.3825 16 73 C18.54899309 69.48238954 18.20303266 65.96376353 18.125 61.75 C18.10695312 60.48671875 18.08890625 59.2234375 18.0703125 57.921875 C18.04710937 56.95765625 18.02390625 55.9934375 18 55 C17.01 55 16.02 55 15 55 C13.02 54.505 13.02 54.505 11 54 C10.67 58.95 10.34 63.9 10 69 C-4.60377358 71.43396226 -4.60377358 71.43396226 -10 68 C-11.3125 65.375 -11.3125 65.375 -12 63 C-14.45224694 63.10613836 -14.45224694 63.10613836 -17 64 C-18.15521502 66.47130918 -18.15521502 66.47130918 -19 69 C-22.33250502 70.11083501 -24.93038958 70.16759585 -28.4375 70.1875 C-29.57058594 70.20167969 -30.70367187 70.21585938 -31.87109375 70.23046875 C-34.88570186 70.00841896 -36.55512305 69.73973513 -39 68 C-40.00259507 64.99221479 -40.30314642 62.46179353 -40.5625 59.3125 C-40.64628906 58.31863281 -40.73007813 57.32476562 -40.81640625 56.30078125 C-40.87699219 55.54152344 -40.93757813 54.78226563 -41 54 C-44.28930404 53.63314303 -44.28930404 53.63314303 -47 55 Z M-48 66 C-47.67 67.32 -47.34 68.64 -47 70 C-46.67 69.34 -46.34 68.68 -46 68 C-46.66 67.34 -47.32 66.68 -48 66 Z M26 122 C23.83129856 124.16870144 24.24597935 128.74196834 23.9375 131.75 C23.80444458 133.03269775 23.80444458 133.03269775 23.66870117 134.34130859 C22.99702618 141.21003862 22.49023251 148.10035628 23 155 C23.33 155.33 23.66 155.66 24 156 C24.04063832 157.66617115 24.042721 159.33388095 24 161 C21.5625 160.625 21.5625 160.625 19 160 C17.46791541 156.93583081 17.71712909 153.70292458 17.57421875 150.3125 C17.38472656 149.549375 17.19523438 148.78625 17 148 C15.00974564 146.83593284 15.00974564 146.83593284 13 146 C13.25099828 149.52253786 13.52937688 153.04241014 13.8125 156.5625 C13.88275391 157.55314453 13.95300781 158.54378906 14.02539062 159.56445312 C14.64586688 167.03498722 15.52440437 173.15976317 21.375 178.375 C25.50551073 182.84322545 26.62693516 187.6280971 28.16015625 193.35888672 C31.47692363 205.7240755 36.42139443 220.05283666 48 227 C52.02637905 228.09810338 54.27345095 228.23752565 58.25 226.9375 C62.50723383 223.93808525 64.01438126 219.97996836 65 215 C66.55223611 194.41378663 61.94002601 173.81670322 57.0625 153.9375 C56.89959473 153.26113495 56.73668945 152.5847699 56.56884766 151.88790894 C53.83642865 140.65419307 51.11719291 129.69040176 41 123 C40.67 123 40.34 123 40 123 C39.9845388 123.99478867 39.9845388 123.99478867 39.96876526 125.00967407 C39.86047367 131.92044482 39.74589447 138.83109114 39.62768555 145.74169922 C39.58440928 148.3197977 39.54272909 150.8979235 39.50268555 153.47607422 C39.44480598 157.18465399 39.38116231 160.89309721 39.31640625 164.6015625 C39.29969376 165.75177887 39.28298126 166.90199524 39.26576233 168.08706665 C39.24581711 169.16773407 39.22587189 170.24840149 39.20532227 171.36181641 C39.18977798 172.30779694 39.1742337 173.25377747 39.15821838 174.22842407 C38.9881154 177.20818733 38.53976732 180.06652092 38 183 C37.01 183 36.02 183 35 183 C33.77334328 177.22782346 33.83000937 171.52426576 33.7890625 165.65234375 C33.76100998 163.4160081 33.73234565 161.17968006 33.703125 158.94335938 C33.66178553 155.43221116 33.62487822 151.92120755 33.59863281 148.40991211 C33.5710537 145.01126206 33.52520345 141.61324885 33.4765625 138.21484375 C33.47330963 137.16578354 33.47005676 136.11672333 33.46670532 135.03587341 C33.49971031 127.93715 33.49971031 127.93715 30 122 C28.68 122 27.36 122 26 122 Z M48 125 C48.66 126.32 49.32 127.64 50 129 C50 128.01 50 127.02 50 126 C49.34 125.67 48.68 125.34 48 125 Z M51 129 C52.26974972 133.41522109 52.26974972 133.41522109 55 137 C54.50168276 133.31245243 53.89932357 131.39509338 51 129 Z M55 137 C55.33 139.31 55.66 141.62 56 144 C56.69159401 142.15274948 56.69159401 142.15274948 57 140 C56.34 139.01 55.68 138.02 55 137 Z M57 144 C58 147 58 147 58 147 Z M58 147 C58.12375 148.2375 58.2475 149.475 58.375 150.75 C58.44460937 151.44609375 58.51421875 152.1421875 58.5859375 152.859375 C59.03532965 155.1826476 59.85774238 156.9383643 61 159 C60.88541307 157.56163249 60.75790884 156.12429034 60.625 154.6875 C60.55539063 153.88699219 60.48578125 153.08648437 60.4140625 152.26171875 C60.10435574 149.72775559 60.10435574 149.72775559 58 147 Z M61 159 C61.33 161.97 61.66 164.94 62 168 C62.33 168 62.66 168 63 168 C62.67 165.03 62.34 162.06 62 159 C61.67 159 61.34 159 61 159 Z M63 168 C63 169.98 63 171.96 63 174 C63.33 174 63.66 174 64 174 C64 172.02 64 170.04 64 168 C63.67 168 63.34 168 63 168 Z M64 175 C64 176.65 64 178.3 64 180 C64.33 180 64.66 180 65 180 C65 178.35 65 176.7 65 175 C64.67 175 64.34 175 64 175 Z M65 181 C65 182.98 65 184.96 65 187 C65.33 187 65.66 187 66 187 C66 185.02 66 183.04 66 181 C65.67 181 65.34 181 65 181 Z M66 187 C66 189.31 66 191.62 66 194 C66.33 194 66.66 194 67 194 C67 191.69 67 189.38 67 187 C66.67 187 66.34 187 66 187 Z M67 194 C67 196.31 67 198.62 67 201 C67.33 201 67.66 201 68 201 C68 198.69 68 196.38 68 194 C67.67 194 67.34 194 67 194 Z M68 202 C67.89042969 203.07378906 67.78085938 204.14757812 67.66796875 205.25390625 C67.50838413 206.6901678 67.34819558 208.12636233 67.1875 209.5625 C67.11724609 210.26697266 67.04699219 210.97144531 66.97460938 211.69726562 C66.09045885 219.37169218 63.9239144 224.71650877 58 230 C61.87672274 229.44618247 63.64591003 228.11347383 66 225 C69.38044429 217.51986795 69.34169333 210.07408675 69 202 C68.67 202 68.34 202 68 202 Z M49 230 C49 230.33 49 230.66 49 231 C51.97 231 54.94 231 58 231 C58 230.67 58 230.34 58 230 C55.03 230 52.06 230 49 230 Z M-25 344 C-25.19110352 344.55872803 -25.38220703 345.11745605 -25.57910156 345.69311523 C-26.46522143 348.27603201 -27.35757582 350.85675498 -28.25 353.4375 C-28.55035156 354.31599609 -28.85070312 355.19449219 -29.16015625 356.09960938 C-30.07760117 358.74458357 -31.03225422 361.37305113 -32 364 C-32.45342773 365.30348389 -32.45342773 365.30348389 -32.91601562 366.63330078 C-33.79291592 368.92404395 -34.64722065 370.95409011 -36 373 C-40.54375118 374.81619854 -45.54545449 373.92320211 -50.375 373.5625 C-56.49740633 373.18190093 -62.61660187 372.82001616 -68.75 372.6875 C-70.62945312 372.63142578 -70.62945312 372.63142578 -72.546875 372.57421875 C-77.29382695 373.15953296 -80.51198034 375.13997543 -83.5 378.875 C-84.28022752 382.19096696 -83.55677566 384.01617999 -82 387 C-76.56164298 389.63156532 -70.93892871 389.26842094 -65.03759766 389.22705078 C-63.94432159 389.22734283 -62.85104553 389.22763489 -61.72463989 389.22793579 C-58.12103258 389.22654556 -54.51763357 389.21099852 -50.9140625 389.1953125 C-48.41157138 389.19158129 -45.9090788 389.18873483 -43.40658569 389.18673706 C-37.49936861 389.17988827 -31.59221805 389.16413491 -25.68503511 389.14403808 C-18.29654708 389.11944978 -10.90804974 389.10873951 -3.51953125 389.09765625 C9.65368359 389.07622121 22.82683708 389.04248102 36 389 C35.06509389 387.88849421 34.12715849 386.77953604 33.18798828 385.67163086 C32.66600861 385.05380234 32.14402893 384.43597382 31.60623169 383.79942322 C29.23370496 381.14153787 26.56853512 378.88505678 23.875 376.5625 C18.02636945 371.41425371 13.51902952 365.72039148 9.31005859 359.16821289 C7.97963951 357.22032087 6.76020325 355.57236985 5 354 C1.58232167 353.29026527 1.58232167 353.29026527 -0.76733398 353.2512207 C-5.28667423 352.74270227 -9.3155489 350.38377134 -13.375 348.4375 C-15.15218435 347.59975716 -16.93076334 346.76496444 -18.7109375 345.93359375 C-19.48743652 345.56290771 -20.26393555 345.19222168 -21.06396484 344.81030273 C-22.95769323 343.87130495 -22.95769323 343.87130495 -25 344 Z M-86 383 C-85 386 -85 386 -85 386 Z M-85 386 C-84 388 -84 388 -84 388 Z M-79 391 C-79 391.33 -79 391.66 -79 392 C-39.4 392 0.2 392 41 392 C41 391.67 41 391.34 41 391 C1.4 391 -38.2 391 -79 391 Z " fill="#FFFFFF" transform="translate(171,144)"/>
<path d="M0 0 C0.88171875 -0.03738281 1.7634375 -0.07476562 2.671875 -0.11328125 C7.96851505 -0.18421839 11.60223165 0.31221704 15.72241211 3.78393555 C20.75953194 9.03036513 22.86827251 13.68450154 22.99462891 20.98803711 C22.9663501 22.32427124 22.9663501 22.32427124 22.9375 23.6875 C22.92895996 24.61377197 22.92041992 25.54004395 22.91162109 26.49438477 C22.65151873 34.08603901 20.60319283 39.15947869 16.25 45.375 C14.99443113 48.55421787 14.99443113 48.55421787 14.25 51.375 C13.58333333 53.375 12.91666667 55.375 12.25 57.375 C11.59 57.375 10.93 57.375 10.25 57.375 C10.25 58.035 10.25 58.695 10.25 59.375 C10.91 59.375 11.57 59.375 12.25 59.375 C12.25 62.675 12.25 65.975 12.25 69.375 C7.30129482 70.36631455 2.58343373 70.52599275 -2.4375 70.5 C-3.19611328 70.50386719 -3.95472656 70.50773437 -4.73632812 70.51171875 C-7.9977639 70.50596158 -10.63513748 70.41328751 -13.75 69.375 C-13.75 63.105 -13.75 56.835 -13.75 50.375 C-14.41 50.375 -15.07 50.375 -15.75 50.375 C-15.75 49.055 -15.75 47.735 -15.75 46.375 C-16.41 46.045 -17.07 45.715 -17.75 45.375 C-18.375 42.8125 -18.375 42.8125 -18.75 40.375 C-19.41 40.375 -20.07 40.375 -20.75 40.375 C-24.14150595 34.93050244 -24.29935426 30.22231614 -24.3125 24 C-24.34923828 23.0925 -24.38597656 22.185 -24.42382812 21.25 C-24.46917088 14.25713946 -22.52390699 10.41756164 -17.75 5.375 C-17.09 4.715 -16.43 4.055 -15.75 3.375 C-14.76 3.375 -13.77 3.375 -12.75 3.375 C-12.75 2.715 -12.75 2.055 -12.75 1.375 C-8.50595906 -0.03968031 -4.44726029 0.07028716 0 0 Z " fill="#FFFFFF" transform="translate(157.75,44.625)"/>
<path d="M0 0 C1.47968324 0.14049518 2.95874516 0.28754826 4.4375 0.4375 C5.67306641 0.55931641 5.67306641 0.55931641 6.93359375 0.68359375 C9 1 9 1 10 2 C10.41653848 4.96137578 10.7657473 7.90086624 11.0625 10.875 C11.15192871 11.7609082 11.24135742 12.64681641 11.33349609 13.55957031 C12.18356564 22.71441452 12.1870122 31.81562307 12 41 C14.08058657 38.91941343 13.38043408 34.58039151 13.5234375 31.76171875 C14.04911413 28.71537957 14.97002093 27.28508339 17 25 C18.65 25.33 20.3 25.66 22 26 C21.80778829 30.33579197 21.56460807 34.6673108 21.3125 39 C21.25900391 40.22074219 21.20550781 41.44148438 21.15039062 42.69921875 C20.59826251 51.58127968 19.14380267 57.32284177 12.3984375 63.30859375 C8.79774075 67.34911502 7.98168198 71.90389106 6.625 77.0625 C3.02409974 89.71943252 -2.18636469 103.78204888 -13.9296875 111.22265625 C-18.71129552 113.01801473 -24.143435 112.68612185 -28.875 110.9375 C-34.33884967 105.95575472 -35.77596791 100.26741059 -36.15698242 93.00976562 C-36.18407165 85.35736017 -35.54717388 78.04767554 -34.3125 70.5 C-34.13243408 69.37634033 -33.95236816 68.25268066 -33.7668457 67.0949707 C-31.37875997 52.67770644 -28.02160305 38.66668698 -23.5625 24.75 C-23.29848389 23.9046167 -23.03446777 23.0592334 -22.76245117 22.18823242 C-19.97165548 13.84737976 -16.00436406 6.17618994 -8 2 C-6.67394933 1.6387819 -5.34136932 1.29936139 -4 1 C-3.86047039 9.44976744 -3.7541139 17.89904701 -3.68912697 26.34968472 C-3.657923 30.27447375 -3.61565535 34.19846993 -3.54736328 38.12280273 C-3.48177298 41.91597755 -3.44621188 45.70839386 -3.43073654 49.50209236 C-3.41972047 50.94334912 -3.39820876 52.38456821 -3.36561966 53.82549858 C-3.17155931 62.76829534 -3.83866724 69.11347045 -10 76 C-10.72445312 76.8559375 -11.44890625 77.711875 -12.1953125 78.59375 C-13.15050781 79.53734375 -13.15050781 79.53734375 -14.125 80.5 C-15.08792969 81.47453125 -15.08792969 81.47453125 -16.0703125 82.46875 C-18.08857198 84.07028384 -19.48090578 84.59694492 -22 85 C-22 85.66 -22 86.32 -22 87 C-14.3610177 84.06192989 -7.79769393 77.43901429 -3.84158325 70.33450317 C-1.96507795 65.12918619 -2.52255642 59.43182972 -2.609375 53.97265625 C-2.61684634 52.61503436 -2.62253505 51.2574016 -2.62652588 49.89976501 C-2.64171238 46.3468893 -2.68093161 42.79467998 -2.7253418 39.24206543 C-2.76644697 35.60873425 -2.78456921 31.97529414 -2.8046875 28.34179688 C-2.84743444 21.22759392 -2.91559907 14.11384074 -3 7 C-2.01 7 -1.02 7 0 7 C0 4.69 0 2.38 0 0 Z M0.83911133 6.58056641 C-1.66657848 9.87691395 -1.52254708 12.73875296 -1.42578125 16.7109375 C-1.4207811 17.84573044 -1.4207811 17.84573044 -1.41567993 19.00344849 C-1.40515489 20.62225836 -1.38510652 22.24102933 -1.35641479 23.85961914 C-1.31227712 26.38776605 -1.29613134 28.91486809 -1.28540039 31.44335938 C-1.22854968 39.60918917 -0.92873563 47.67011752 -0.17431641 55.80493164 C0.49702574 63.44508212 0.64664241 69.00920545 -3.9375 75.4375 C-6.453125 78.41796875 -6.453125 78.41796875 -9 81 C-9.71671875 81.75925781 -10.4334375 82.51851563 -11.171875 83.30078125 C-14.85041796 86.8581319 -17.68942059 88.86723551 -23 89 C-23.2578125 86.70703125 -23.2578125 86.70703125 -23 84 C-21.2421875 82.26171875 -21.2421875 82.26171875 -18.875 80.6875 C-13.1884437 76.5860153 -8.708323 71.53661123 -6 65 C-5.74867474 62.1695655 -5.74867474 62.1695655 -5.86474609 59.03808594 C-5.89500381 57.23667145 -5.89500381 57.23667145 -5.9258728 55.39886475 C-5.97416733 53.46119232 -5.97416733 53.46119232 -6.0234375 51.484375 C-6.0496187 50.14489445 -6.07488458 48.80539573 -6.09927368 47.46588135 C-6.16578724 43.94755983 -6.24470899 40.42962254 -6.32623291 36.91162109 C-6.4072877 33.31883443 -6.47658381 29.72582301 -6.546875 26.1328125 C-6.6864205 19.08827766 -6.8390781 12.04408157 -7 5 C-19.38627999 12.07495105 -21.9041839 27.31276316 -25.47265625 40.14892578 C-28.29561011 50.66815969 -30.31229697 61.24741781 -32 72 C-32.23952963 73.42709235 -32.47910932 74.8541763 -32.71875 76.28125 C-34.23429859 86.092433 -35.4093923 96.48872912 -30.2265625 105.4375 C-28.1367151 108.09972599 -26.21591208 109.0541435 -23 110 C-17.51507632 109.90205493 -14.15441946 108.54856662 -10 105 C-0.56849274 93.69899576 3.64550338 80.35552361 6.86328125 66.203125 C8 63 8 63 9.95703125 61.80078125 C10.96830078 61.40439453 10.96830078 61.40439453 12 61 C13.50390124 59.248432 13.50390124 59.248432 14.6875 57.1875 C15.10386719 56.52105469 15.52023438 55.85460937 15.94921875 55.16796875 C18.12344668 50.68210815 18.20117504 45.97710342 18.5 41.0625 C18.76948552 36.64005013 19.20131644 32.35948112 20 28 C19.01 28.33 18.02 28.66 17 29 C16.86722656 29.92683594 16.73445313 30.85367187 16.59765625 31.80859375 C16.42105469 33.00613281 16.24445313 34.20367187 16.0625 35.4375 C15.88847656 36.63246094 15.71445313 37.82742188 15.53515625 39.05859375 C15 42 15 42 14 43 C12.33382885 43.04063832 10.66611905 43.042721 9 43 C9.09539062 42.27941406 9.19078125 41.55882812 9.2890625 40.81640625 C10.5641473 28.46587557 9.18503436 16.31449419 8 4 C5.02153164 4 3.21982874 4.83920785 0.83911133 6.58056641 Z " fill="#FFFFFF" transform="translate(108,262)"/>
<path d="M0 0 C2.0186686 0.76494009 4.01759295 1.58297174 6 2.4375 C13.62449515 5.60914663 20.85690501 5.88501406 29 6 C29 7.32 29 8.64 29 10 C24.82352563 14.0604612 21.43546223 15.10260997 15.76171875 15.140625 C0.50911695 15.43403152 -11.54663465 18.9107993 -25.16723633 25.85205078 C-29.68640643 28.10453119 -29.68640643 28.10453119 -33 27 C-30.73420938 24.66111936 -28.50080572 22.41071881 -25.98046875 20.34375 C-20.57645262 15.87668238 -16.71396002 11.13818577 -12.91894531 5.3046875 C-9.37643939 -0.13339816 -6.39688971 -0.92521111 0 0 Z M-8.74609375 3.6875 C-9.30425781 4.450625 -9.86242187 5.21375 -10.4375 6 C-11.035625 6.81339844 -11.63375 7.62679688 -12.25 8.46484375 C-14.62456163 11.9047779 -16.87267065 15.40216649 -19 19 C-18.40574219 18.81824219 -17.81148437 18.63648438 -17.19921875 18.44921875 C-15.42950416 17.91252459 -13.65709028 17.38469157 -11.8828125 16.86328125 C-10.09737126 16.3286166 -8.31912379 15.76832806 -6.5546875 15.16796875 C0.37385786 12.96343159 7.05175159 12.56513168 14.27514648 12.46630859 C19.25841055 12.33999402 22.62229047 11.65059385 27 9 C27 8.67 27 8.34 27 8 C25.38544922 7.97873047 25.38544922 7.97873047 23.73828125 7.95703125 C14.84567901 7.71072426 7.81610467 6.75555051 -0.36328125 3.05859375 C-3.71435388 1.71320015 -5.98864156 1.02257976 -8.74609375 3.6875 Z " fill="#FFFFFF" transform="translate(210,464)"/>
<path d="M0 0 C4.70256847 2.13976062 9.141056 4.67769461 13.5703125 7.32421875 C16.80095575 9.24713297 20.06569251 11.07267878 23.37109375 12.86328125 C24.26570313 13.34796875 25.1603125 13.83265625 26.08203125 14.33203125 C26.71367187 14.67234375 27.3453125 15.01265625 27.99609375 15.36328125 C27.99609375 16.35328125 27.99609375 17.34328125 27.99609375 18.36328125 C24.10960846 17.12460611 20.45013901 15.6886763 16.74609375 13.98828125 C5.19889343 9.16386381 -6.95722746 6.97233301 -19.43432617 6.69042969 C-23.35785142 6.58481663 -26.53268394 6.27572826 -30.00390625 4.36328125 C-30.81640625 1.73828125 -30.81640625 1.73828125 -31.00390625 -0.63671875 C-21.87406841 -6.07787598 -9.58761197 -3.57746715 0 0 Z M-27.8671875 0.87890625 C-28.24230469 1.36875 -28.61742188 1.85859375 -29.00390625 2.36328125 C-27.0009294 4.3662581 -23.01405807 3.68473883 -20.25390625 3.80078125 C-11.026609 4.26000566 -2.05682023 5.51305066 6.99609375 7.36328125 C-1.62674485 0.27878944 -12.57750034 -0.69517395 -23.296875 -0.96484375 C-26.04874221 -0.87533169 -26.04874221 -0.87533169 -27.8671875 0.87890625 Z " fill="#FFFFFF" transform="translate(111.00390625,463.63671875)"/>
<path d="M0 0 C2.475 0.495 2.475 0.495 5 1 C4.67 2.32 4.34 3.64 4 5 C2.68 4.67 1.36 4.34 0 4 C0 2.68 0 1.36 0 0 Z " fill="#FFFFFF" transform="translate(231,381)"/>
<path d="M0 0 C0.99 0 1.98 0 3 0 C3 0.66 3 1.32 3 2 C2.01 2 1.02 2 0 2 C0 1.34 0 0.68 0 0 Z " fill="#FFFFFF" transform="translate(180,216)"/>
<path d="M0 0 C0.66 0 1.32 0 2 0 C2 0.66 2 1.32 2 2 C1.34 2 0.68 2 0 2 C0 1.34 0 0.68 0 0 Z " fill="#FFFFFF" transform="translate(163,152)"/>
<path d="M0 0 C0.33 0.66 0.66 1.32 1 2 C0.34 1.67 -0.32 1.34 -1 1 C-0.67 0.67 -0.34 0.34 0 0 Z " fill="#FFFFFF" transform="translate(86,518)"/>
<path d="" fill="#FFFFFF" transform="translate(0,0)"/>
<path d="" fill="#FFFFFF" transform="translate(0,0)"/>
</svg>
