<?xml version="1.0" encoding="UTF-8"?>
<svg version="1.1" xmlns="http://www.w3.org/2000/svg" width="327" height="568">
<path d="M0 0 C4.42484878 2.21242439 7.19476657 4.94799616 10 9 C11.6084387 13.82531609 11.39221243 17.80271995 9.8125 22.625 C9.544375 23.73875 9.27625 24.8525 9 26 C9.45375 26.68191406 9.9075 27.36382812 10.375 28.06640625 C12.73618132 32.32901964 12.8176421 36.51113364 13.1875 41.3125 C13.26935547 42.24384766 13.35121094 43.17519531 13.43554688 44.13476562 C13.6349871 46.42246232 13.82275822 48.71049448 14 51 C15.175625 51.185625 15.175625 51.185625 16.375 51.375 C19 52 19 52 21 54 C21.91178056 61.0931164 21.47064585 69.73237161 17.0625 75.5625 C15 77 15 77 12 77 C11.9175 77.70125 11.835 78.4025 11.75 79.125 C10.60263558 83.52323027 8.19117306 86.80882694 5 90 C4.53837573 92.43252661 4.53837573 92.43252661 4.375 95.125 C4.30023438 96.03507812 4.22546875 96.94515625 4.1484375 97.8828125 C4.07496094 98.93082031 4.07496094 98.93082031 4 100 C5.86011719 100.09667969 5.86011719 100.09667969 7.7578125 100.1953125 C13.95398053 100.88701163 19.23721128 103.33006468 24.875 105.875 C25.90625 106.32230469 26.9375 106.76960938 28 107.23046875 C36.61633107 111.04370143 36.61633107 111.04370143 39 114 C39 114.66 39 115.32 39 116 C40.11761719 116.16435547 40.11761719 116.16435547 41.2578125 116.33203125 C47.06309092 117.74613753 50.64048666 121.94930551 53.859375 126.8046875 C62.46143776 142.67663516 65.32561078 160.71239915 68.3125 178.3125 C68.44173859 179.06323792 68.57097717 179.81397583 68.70413208 180.58746338 C70.09788762 188.77677033 71.20390429 196.9289126 71.734375 205.22265625 C71.78076614 205.91386063 71.82715729 206.605065 71.87495422 207.31721497 C72.28341083 215.08373318 70.83555261 221.81545449 66.5 228.3125 C64.46946111 230.39305216 63.50424881 230.96083504 60.5859375 231.1875 C47.02907934 229.31219974 36.23755861 220.60059434 25.80664062 212.41601562 C24.25094689 211.19668811 22.68142925 209.99503526 21.109375 208.796875 C14.90863068 204.00007279 9.45424813 198.61925059 4 193 C3.17371094 192.175 2.34742188 191.35 1.49609375 190.5 C-0.13684428 188.86450651 -1.75357447 187.21262734 -3.3515625 185.54296875 C-4.10179687 184.76566406 -4.85203125 183.98835937 -5.625 183.1875 C-6.38039062 182.39730469 -7.13578125 181.60710937 -7.9140625 180.79296875 C-9.92074132 178.67407834 -9.92074132 178.67407834 -13 179 C-14.77730233 180.60850825 -16.36948307 182.24805628 -18 184 C-45.16876901 211.96461531 -45.16876901 211.96461531 -53.80671692 215.80279541 C-56.09982893 216.96677161 -57.41275537 217.95694193 -59 220 C-59.82351129 224.09481624 -59.76614988 228.09779417 -59.66222572 232.2638073 C-59.58471643 235.87693254 -59.65748147 239.48795998 -59.71313477 243.10107422 C-59.72261107 243.8520296 -59.73208738 244.60298498 -59.74185085 245.37669659 C-60.27462995 282.40987386 -60.27462995 282.40987386 -67.12255859 290.48095703 C-74.2285398 296.83385519 -83.85400124 298.98121795 -92.94287109 300.96435547 C-98.73354268 302.30328489 -103.4461221 305.2006832 -108.375 308.4375 C-109.55267944 309.16404785 -109.55267944 309.16404785 -110.75415039 309.90527344 C-116.16871766 313.28147793 -121.12731092 317.02193468 -125.90625 321.2578125 C-128 323 -128 323 -130.21875 324.0546875 C-132.35926713 324.92822315 -132.35926713 324.92822315 -133 328 C-133.66 328 -134.32 328 -135 328 C-139.34620254 336.38196204 -140.79098932 344.56634906 -138.1953125 353.890625 C-133.78911711 363.79696773 -124.66256081 368.96805456 -115 373 C-110.1726732 374.48615034 -105.2925541 375.66540834 -100.375 376.8125 C-99.07134601 377.1258378 -97.76795799 377.44028435 -96.46484375 377.75585938 C-93.31232504 378.51479906 -90.1576004 379.26254463 -87 380 C-86.56429687 379.44570313 -86.12859375 378.89140625 -85.6796875 378.3203125 C-79.65131393 370.98709617 -79.65131393 370.98709617 -74 370 C-61.49782434 368.97266245 -48.51080518 370.42025354 -36 371 C-35.80627808 370.10051636 -35.80627808 370.10051636 -35.60864258 369.18286133 C-35.43486084 368.3864624 -35.2610791 367.59006348 -35.08203125 366.76953125 C-34.82643433 365.59161011 -34.82643433 365.59161011 -34.56567383 364.38989258 C-32.64326651 356.26799133 -29.27485161 348.64994981 -26 341 C-21.26903917 341.67585155 -17.25551664 343.49419462 -12.9375 345.4375 C-12.23044922 345.75009766 -11.52339844 346.06269531 -10.79492188 346.38476562 C-8.06678499 347.59641703 -5.37678601 348.79489736 -2.75390625 350.22265625 C-0.71025441 351.2701291 -0.71025441 351.2701291 3 351 C3.33 350.34 3.66 349.68 4 349 C4.66 349 5.32 349 6 349 C6.42023438 349.88042969 6.84046875 350.76085937 7.2734375 351.66796875 C13.890513 364.43802623 24.78742138 374.13036142 35 384 C35.66 383.34 36.32 382.68 37 382 C39.43579102 381.56103516 39.43579102 381.56103516 42.50390625 381.2890625 C44.19132935 381.12700317 44.19132935 381.12700317 45.9128418 380.96166992 C47.117229 380.85056885 48.32161621 380.73946777 49.5625 380.625 C68.35872819 378.69588419 93.37057993 376.043809 106.734375 361.0546875 C111.50549978 355.07942171 113.66970025 349.76852292 113 342 C109.85610876 328.05255524 98.20981601 321.17366604 87 314 C85.68990993 313.14352621 84.3800088 312.28676332 83.0703125 311.4296875 C67.50357115 301.36378329 51.02285435 293.28098191 34 286 C33.93941406 284.95199219 33.87882813 283.90398437 33.81640625 282.82421875 C33.73198262 281.44529952 33.64733553 280.06639395 33.5625 278.6875 C33.52318359 277.99720703 33.48386719 277.30691406 33.44335938 276.59570312 C33.25072585 273.52838465 32.97677283 270.93031848 32 268 C32.33 267.01 32.66 266.02 33 265 C33.03187694 262.95464118 33.03187694 262.95464118 32.83813477 260.7121582 C32.77799698 259.85149246 32.71785919 258.99082672 32.65589905 258.1040802 C32.58511642 257.17899155 32.5143338 256.25390289 32.44140625 255.30078125 C32.37340317 254.35059616 32.30540009 253.40041107 32.2353363 252.4214325 C32.01669724 249.38468173 31.78969927 246.34862116 31.5625 243.3125 C31.41286082 241.25459726 31.2637655 239.19665489 31.11523438 237.13867188 C30.74980038 232.09196635 30.3768682 227.04586402 30 222 C30.99 222 31.98 222 33 222 C35.2250259 242.75704571 36.4650599 263.11046312 36 284 C37.2271875 284.37511719 38.454375 284.75023437 39.71875 285.13671875 C45.88212964 287.19479564 51.65701882 289.98897556 57.5 292.8125 C58.57636719 293.32103516 59.65273437 293.82957031 60.76171875 294.35351562 C67.22310029 297.45828422 73.12804938 300.9024372 79 305 C80.18019612 305.76511113 81.36481909 306.52345677 82.5546875 307.2734375 C112.80109316 326.41763308 112.80109316 326.41763308 116 339 C116.98514273 347.70775583 116.19681599 353.89237701 111 361 C110.29875 362.03125 109.5975 363.0625 108.875 364.125 C92.95864723 381.74493793 62.93905393 383.0893242 41 385 C42.0209375 385.8353125 42.0209375 385.8353125 43.0625 386.6875 C44.0215625 387.8321875 44.0215625 387.8321875 45 389 C44.62109375 391.64453125 44.62109375 391.64453125 44 394 C27.80568718 394.09349076 11.61146207 394.1640023 -4.5830555 394.20724869 C-12.10266269 394.22786354 -19.62210208 394.25596332 -27.14160156 394.30175781 C-33.69651874 394.34165883 -40.25131438 394.36744065 -46.80634964 394.37635398 C-50.27642927 394.38156329 -53.74616123 394.39378394 -57.2161293 394.42292023 C-61.09223132 394.45520193 -64.96799493 394.4559573 -68.84423828 394.45410156 C-69.99150894 394.46848267 -71.1387796 394.48286377 -72.32081604 394.49768066 C-78.46309676 394.46581864 -82.4403229 394.32405141 -87 390 C-88.375 386.25 -88.375 386.25 -89 383 C-89.67353516 382.86013672 -90.34707031 382.72027344 -91.04101562 382.57617188 C-127.89021801 374.76424144 -127.89021801 374.76424144 -138 361 C-142.68393761 353.42832504 -144.32562643 345.68894069 -142.57421875 336.8515625 C-135.44974085 314.73508509 -103.2014238 301.36944096 -84.47265625 291.7265625 C-69.16588858 284 -69.16588858 284 -66 284 C-66.03480469 282.98550781 -66.06960937 281.97101563 -66.10546875 280.92578125 C-66.40686286 267.0365359 -65.26776996 253.31996694 -64.06713867 239.49731445 C-63.96383492 238.30674187 -63.96383492 238.30674187 -63.85844421 237.09211731 C-63.72692451 235.58898531 -63.59333797 234.08603223 -63.45735168 232.58329773 C-63.17178803 229.36594723 -63 226.23444826 -63 223 C-63.70346558 223.44653931 -63.70346558 223.44653931 -64.42114258 223.90209961 C-66.5495218 225.2505383 -68.68096099 226.59406226 -70.8125 227.9375 C-71.55048828 228.40607422 -72.28847656 228.87464844 -73.04882812 229.35742188 C-73.76103516 229.80537109 -74.47324219 230.25332031 -75.20703125 230.71484375 C-75.8616333 231.12855225 -76.51623535 231.54226074 -77.19067383 231.96850586 C-81.26202199 234.28957535 -85.42528285 234.62500879 -90 234 C-94.35099288 231.74083062 -97.36806227 229.13590215 -100 225 C-107.2537746 200.85566723 -99.28447304 172.77475841 -92.5 149.25 C-92.31494904 148.60250793 -92.12989807 147.95501587 -91.9392395 147.28790283 C-86.00753835 126.76868111 -86.00753835 126.76868111 -78.5 120.4375 C-77.7678125 119.79683594 -77.035625 119.15617187 -76.28125 118.49609375 C-74 117 -74 117 -71.34375 116.53515625 C-70.18359375 116.27025391 -70.18359375 116.27025391 -69 116 C-68.30717388 114.68007039 -67.64273679 113.34503221 -67 112 C-57.85234797 106.0470135 -44.82057444 100.40634377 -34 99 C-34.21717467 92.1589978 -35.52939242 88.45967897 -39.72265625 83.04296875 C-41 81 -41 81 -41 77 C-41.721875 76.79375 -42.44375 76.5875 -43.1875 76.375 C-46.95533025 74.53294965 -49.45316477 72.92500921 -51 69 C-51.32448584 63.89622273 -51.16808269 59.00357807 -50 54 C-48.12109375 52.04296875 -48.12109375 52.04296875 -46 51 C-45.01 51 -44.02 51 -43 51 C-43.02320313 50.154375 -43.04640625 49.30875 -43.0703125 48.4375 C-43.23317635 38.20034361 -43.00840855 31.53335995 -35.8515625 23.76171875 C-32.4593455 20.53410299 -29.8963625 18.70077518 -25.25 17.8125 C-24.45078125 17.65394531 -23.6515625 17.49539062 -22.828125 17.33203125 C-22.22484375 17.22246094 -21.6215625 17.11289063 -21 17 C-20.9175 15.96875 -20.835 14.9375 -20.75 13.875 C-19.6824647 8.35940096 -17.50407556 5.36083027 -13.375 1.625 C-8.80155451 -0.57702931 -4.99046524 -0.80465156 0 0 Z M-15.7265625 7.1328125 C-17.91807954 10.34614116 -17.93379819 13.16029525 -18 17 C-17.34 17 -16.68 17 -16 17 C-16 17.66 -16 18.32 -16 19 C-16.556875 19.02578125 -17.11375 19.0515625 -17.6875 19.078125 C-25.41752881 19.65265417 -31.16666359 21.65188151 -36.4375 27.5 C-40.44115609 32.30002365 -40.13182142 37.21370384 -40.0625 43.25 C-40.05798828 43.99507812 -40.05347656 44.74015625 -40.04882812 45.5078125 C-40.03709246 47.3385764 -40.0191585 49.16929873 -40 51 C-39.01 50.505 -39.01 50.505 -38 50 C-38 49.34 -38 48.68 -38 48 C-31.664629 47.92393829 -25.32937576 47.87139543 -18.99365234 47.83520508 C-16.83833414 47.82011818 -14.68304664 47.79964611 -12.52783203 47.77368164 C-9.42993596 47.73729456 -6.33244577 47.72027261 -3.234375 47.70703125 C-2.27070007 47.69154739 -1.30702515 47.67606354 -0.31414795 47.66011047 C0.58648376 47.65988388 1.48711548 47.65965729 2.41503906 47.65942383 C3.20557678 47.65276199 3.9961145 47.64610016 4.81060791 47.63923645 C7.53323503 48.08786538 8.93534648 49.21818555 11 51 C11.31006659 42.90381687 11.26227294 34.16693302 7 27 C6.34 26.67 5.68 26.34 5 26 C5.309375 25.401875 5.61875 24.80375 5.9375 24.1875 C7.99078976 19.96013873 8.31695924 16.67514885 8 12 C6.75588046 8.59504127 5.61690397 6.56082179 2.9375 4.125 C-4.02242798 1.45949567 -10.28746782 1.79586045 -15.7265625 7.1328125 Z M-47 55 C-47.65539953 59.33061462 -47.97668549 63.3826316 -45.66015625 67.21875 C-44.17924373 68.91918603 -42.67634298 70.49328696 -41 72 C-41.66 72.66 -42.32 73.32 -43 74 C-42.01 74.33 -41.02 74.66 -40 75 C-39.30562253 76.99054876 -38.64389782 78.99255385 -38 81 C-36.68568305 83.01254782 -35.35278115 85.01310269 -34 87 C-31.70412197 91.47092037 -31.4088142 96.06195485 -31 101 C-31.64582031 101.12375 -32.29164063 101.2475 -32.95703125 101.375 C-39.93619925 102.90258807 -46.35281581 105.19056174 -52.9375 107.9375 C-53.75387939 108.27330078 -54.57025879 108.60910156 -55.41137695 108.95507812 C-59.73518036 110.80042441 -63.72902698 112.5241911 -67 116 C-67.95490375 120.20946501 -68.12203323 124.25118313 -68.11352539 128.55615234 C-68.11344986 129.83702728 -68.11337433 131.11790222 -68.11329651 132.43759155 C-68.10819105 133.82037394 -68.10297508 135.20315592 -68.09765625 136.5859375 C-68.09578917 138.01225739 -68.09436664 139.43857792 -68.09336853 140.86489868 C-68.08956615 144.60326942 -68.07975552 148.34160078 -68.06866455 152.07995605 C-68.05840124 155.90095487 -68.0538604 159.7219601 -68.04882812 163.54296875 C-68.03813103 171.02866371 -68.02108223 178.51432632 -68 186 C-64.08470144 184.46776495 -60.41663513 182.69563572 -56.6875 180.75 C-50.77685955 177.72143369 -44.76248191 175.26392499 -38.5065918 173.04199219 C-31.10045726 170.61567467 -31.10045726 170.61567467 -25.25 165.8125 C-21.72160772 157.87361737 -21.04444014 149.02391923 -19.875 140.5 C-19.69324219 139.200625 -19.51148438 137.90125 -19.32421875 136.5625 C-18.87897792 133.375513 -18.43768543 130.18803188 -18 127 C-15.36 127 -12.72 127 -10 127 C-6.73479267 133.25460697 -6.34092472 139.08537569 -5.9375 146.0625 C-5.61325779 155.27414965 -5.61325779 155.27414965 -3 164 C0.18813717 165.84203481 3.19339096 166.76705687 6.71875 167.78515625 C17.23480698 170.85233954 27.20226829 175.10113415 37 180 C37.33 160.53 37.66 141.06 38 121 C41.75635569 121.75127114 43.83210307 122.24005726 47 124 C44.1303566 120.97093197 41.73178823 118.80570398 38 117 C37.39849121 116.36787598 36.79698242 115.73575195 36.17724609 115.08447266 C33.90983717 112.91367905 32.10391088 111.91487023 29.2265625 110.7109375 C27.8653125 110.13472656 27.8653125 110.13472656 26.4765625 109.546875 C25.53554687 109.16015625 24.59453125 108.7734375 23.625 108.375 C22.69171875 107.98054688 21.7584375 107.58609375 20.796875 107.1796875 C11.24470037 103.02295938 11.24470037 103.02295938 1 102 C1.06029967 100.08247047 1.14916707 98.16582574 1.25 96.25 C1.29640625 95.18265625 1.3428125 94.1153125 1.390625 93.015625 C2.12164109 89.39803257 3.35073229 88.46431883 6 86 C7.097043 83.53799084 7.097043 83.53799084 7.875 80.9375 C9.61052087 76.23368748 9.61052087 76.23368748 13.125 74.125 C14.07375 73.75375 15.0225 73.3825 16 73 C18.54899309 69.48238954 18.20303266 65.96376353 18.125 61.75 C18.10695313 60.48671875 18.08890625 59.2234375 18.0703125 57.921875 C18.04710937 56.95765625 18.02390625 55.9934375 18 55 C17.01 55 16.02 55 15 55 C13.68 54.67 12.36 54.34 11 54 C10.67 58.95 10.34 63.9 10 69 C-4.60377358 71.43396226 -4.60377358 71.43396226 -10 68 C-11.3125 65.375 -11.3125 65.375 -12 63 C-14.45224694 63.10613836 -14.45224694 63.10613836 -17 64 C-18.15521502 66.47130918 -18.15521502 66.47130918 -19 69 C-22.33250502 70.11083501 -24.93038958 70.16759585 -28.4375 70.1875 C-29.57058594 70.20167969 -30.70367187 70.21585938 -31.87109375 70.23046875 C-34.88570186 70.00841896 -36.55512305 69.73973513 -39 68 C-40.00259507 64.99221479 -40.30314642 62.46179353 -40.5625 59.3125 C-40.68818359 57.82169922 -40.68818359 57.82169922 -40.81640625 56.30078125 C-40.87699219 55.54152344 -40.93757813 54.78226563 -41 54 C-44.28930404 53.63314303 -44.28930404 53.63314303 -47 55 Z M-48 66 C-47.67 67.32 -47.34 68.64 -47 70 C-46.67 69.34 -46.34 68.68 -46 68 C-46.66 67.34 -47.32 66.68 -48 66 Z M-74.25 121 C-74.8275 121.66 -75.405 122.32 -76 123 C-73.0280615 121.87548273 -70.66559313 120.77706209 -68 119 C-72.00346023 118.55709077 -72.00346023 118.55709077 -74.25 121 Z M-78 123 C-77.67 123.66 -77.34 124.32 -77 125 C-76.67 124.34 -76.34 123.68 -76 123 C-76.66 123 -77.32 123 -78 123 Z M40 123 C39.58955724 130.53479003 39.24650517 138.07016802 38.98710251 145.61162472 C38.86453497 149.11472434 38.71970828 152.61379978 38.52197266 156.11352539 C38.29512629 160.14647177 38.1688417 164.17735403 38.046875 168.21484375 C37.9630658 169.45894516 37.87925659 170.70304657 37.79290771 171.98484802 C37.69578097 177.46397886 37.73349754 180.66348041 41.60827637 184.75247192 C44.56521421 187.1157913 47.75601055 189.05358285 51 191 C56.63251653 195.26503307 56.63251653 195.26503307 58 198 C58.66 198 59.32 198 60 198 C60.268125 198.61875 60.53625 199.2375 60.8125 199.875 C61.95556848 202.2995233 61.95556848 202.2995233 65 204 C64.31468445 186.45592201 60.70663211 169.13485024 56.5625 152.125 C56.28647949 150.96734131 56.01045898 149.80968262 55.72607422 148.61694336 C53.15094518 138.40622277 50.12925106 129.03708538 41 123 C40.67 123 40.34 123 40 123 Z M-74.3125 125.5 C-75.20388672 126.19609375 -75.20388672 126.19609375 -76.11328125 126.90625 C-82.183736 133.64282091 -84.07193033 143.12413545 -86.5 151.625 C-86.6973172 152.30852539 -86.8946344 152.99205078 -87.09793091 153.69628906 C-90.32296229 164.91640738 -92.92826836 176.12523159 -94.65332031 187.68261719 C-94.98190125 189.87901876 -95.34266469 192.06777559 -95.7109375 194.2578125 C-96.92348201 202.05274152 -97.07765837 209.17969537 -96 217 C-94.00360918 215.00360918 -93.18211287 213.4981477 -91.9375 211 C-87.50719797 202.89515335 -80.9592314 196.42079822 -73.7265625 190.765625 C-70.69251229 187.66293112 -69.14086079 184.30883676 -68.67720032 180.00064087 C-68.70162704 178.94807098 -68.72605377 177.8955011 -68.7512207 176.81103516 C-68.77146805 175.61024323 -68.79171539 174.40945129 -68.81257629 173.17227173 C-68.84993393 171.89081268 -68.88729156 170.60935364 -68.92578125 169.2890625 C-68.95384664 167.95245091 -68.98053357 166.61580973 -69.00590515 165.27914429 C-69.07605552 161.7771102 -69.16481872 158.27579069 -69.25756836 154.77429199 C-69.34905245 151.19482445 -69.42278488 147.61499511 -69.49804688 144.03515625 C-69.64806956 137.02298413 -69.81777437 130.01140719 -70 123 C-71.79979637 123 -72.95886497 124.4101354 -74.3125 125.5 Z M-79 125 C-82.57905815 128.99829706 -84.39064492 132.85131312 -86.1875 137.8125 C-86.44724609 138.48603516 -86.70699219 139.15957031 -86.97460938 139.85351562 C-88.72455301 144.57881563 -89.53370816 148.9831492 -90 154 C-88.29804809 151.44707214 -87.50784785 149.82449724 -86.6328125 146.98046875 C-86.38660156 146.20509766 -86.14039063 145.42972656 -85.88671875 144.63085938 C-85.38292661 143.0148492 -84.8828628 141.39767152 -84.38671875 139.77929688 C-82.83369342 134.91502841 -81.05214474 131.10255819 -78 127 C-78.33 126.34 -78.66 125.68 -79 125 Z M48 125 C48.66 126.32 49.32 127.64 50 129 C50 128.01 50 127.02 50 126 C49.34 125.67 48.68 125.34 48 125 Z M-16 129 C-16.14099121 129.83136475 -16.28198242 130.66272949 -16.42724609 131.51928711 C-16.95847335 134.64508747 -17.49175488 137.7705289 -18.02636719 140.89575195 C-18.25601423 142.24066668 -18.48487518 143.5857159 -18.71289062 144.9309082 C-20.85566649 157.56670709 -20.85566649 157.56670709 -22.2265625 163.31640625 C-23.35712642 166.80363339 -23.35712642 166.80363339 -22 169 C-23.81371094 169.58007812 -23.81371094 169.58007812 -25.6640625 170.171875 C-31.99800801 172.28731867 -38.18165898 174.75755788 -44.375 177.25 C-45.53 177.70246094 -46.685 178.15492188 -47.875 178.62109375 C-57.6507932 182.56009846 -66.61683861 187.31478624 -74.3125 194.625 C-76.88694868 197.04490041 -79.40485477 199.34613351 -82.25 201.4375 C-86.15360804 205.07495295 -88.43573218 209.36126832 -91 214 C-91.79033393 215.37576647 -92.5818083 216.75087917 -93.375 218.125 C-93.91125 219.07375 -94.4475 220.0225 -95 221 C-95.99 220.67 -96.98 220.34 -98 220 C-97.8882925 223.79805508 -96.64019694 225.74547249 -94 228.3125 C-90.53113987 231.01441134 -87.8786312 231.97889983 -83.484375 231.625 C-78.04522829 230.2566612 -73.57331218 227.1380446 -69 224 C-67.96746094 223.29206299 -67.96746094 223.29206299 -66.9140625 222.56982422 C-56.81852819 215.57600999 -47.15640585 208.18384856 -38 200 C-37.40670898 199.47374023 -36.81341797 198.94748047 -36.20214844 198.40527344 C-29.63446077 192.55243613 -23.34483276 186.82723803 -18.234375 179.609375 C-17 178 -17 178 -15 177 C-10.02133116 163.6395216 -14.44897918 142.90448285 -15 129 C-15.33 129 -15.66 129 -16 129 Z M-12 129 C-11.93072728 134.53224981 -11.84257175 140.06377214 -11.73754883 145.59545898 C-11.70446816 147.47395704 -11.67638473 149.35255046 -11.65356445 151.23120117 C-11.61970614 153.94490889 -11.56737785 156.65775576 -11.51171875 159.37109375 C-11.50532883 160.19959335 -11.4989389 161.02809296 -11.49235535 161.88169861 C-11.28987372 170.06672614 -9.74090706 177.0649938 -3.71875 182.9375 C-2.882229 183.76523926 -2.04570801 184.59297852 -1.18383789 185.44580078 C-0.29817139 186.28868652 0.58749512 187.13157227 1.5 188 C2.40693604 188.88284668 3.31387207 189.76569336 4.24829102 190.67529297 C10.25484341 196.47245842 16.33753996 201.96501112 23 207 C24.01964844 207.81339844 25.03929687 208.62679687 26.08984375 209.46484375 C42.73009772 222.97951164 42.73009772 222.97951164 63 228 C69.57540894 219.83055253 69.27179565 212.04133942 69 202 C68.67 202 68.34 202 68 202 C67.95101562 202.63808594 67.90203125 203.27617187 67.8515625 203.93359375 C67.73941406 205.17302734 67.73941406 205.17302734 67.625 206.4375 C67.52058594 207.67306641 67.52058594 207.67306641 67.4140625 208.93359375 C67.27742188 209.61550781 67.14078125 210.29742187 67 211 C66.01 211.495 66.01 211.495 65 212 C64.01 208.535 64.01 208.535 63 205 C62.34 205 61.68 205 61 205 C60.73574219 204.41347656 60.47148437 203.82695312 60.19921875 203.22265625 C50.29387983 184.86390104 23.75516644 174.65701076 5 169 C4.05382812 168.72671875 3.10765625 168.4534375 2.1328125 168.171875 C-3.70866027 166.41756688 -3.70866027 166.41756688 -5.18164062 164.30639648 C-6.21062091 161.40640341 -6.50083134 158.72558196 -6.78125 155.66015625 C-6.90113281 154.43232422 -7.02101562 153.20449219 -7.14453125 151.93945312 C-7.26183594 150.66005859 -7.37914062 149.38066406 -7.5 148.0625 C-7.73272713 145.53191218 -7.97205718 143.00192082 -8.21875 140.47265625 C-8.32123047 139.35125244 -8.42371094 138.22984863 -8.52929688 137.07446289 C-8.98405426 134.10415181 -9.76244418 131.72637106 -11 129 C-11.33 129 -11.66 129 -12 129 Z M51 129 C52.26974972 133.41522109 52.26974972 133.41522109 55 137 C54.50168276 133.31245243 53.89932357 131.39509338 51 129 Z M55 137 C55.33 139.31 55.66 141.62 56 144 C56.69159401 142.15274948 56.69159401 142.15274948 57 140 C56.34 139.01 55.68 138.02 55 137 Z M57 144 C58 147 58 147 58 147 Z M58 147 C58.12375 148.2375 58.2475 149.475 58.375 150.75 C58.44460937 151.44609375 58.51421875 152.1421875 58.5859375 152.859375 C59.03532965 155.1826476 59.85774238 156.9383643 61 159 C60.88541307 157.56163249 60.75790884 156.12429034 60.625 154.6875 C60.55539063 153.88699219 60.48578125 153.08648437 60.4140625 152.26171875 C60.10435574 149.72775559 60.10435574 149.72775559 58 147 Z M-91 154 C-95.67833895 169.75285336 -95.67833895 169.75285336 -97 186 C-96.67 186 -96.34 186 -96 186 C-95.18427743 181.97981356 -94.37300025 177.95874228 -93.5625 173.9375 C-93.21735352 172.2369043 -93.21735352 172.2369043 -92.86523438 170.50195312 C-91.76116107 165.01358871 -90.70144749 159.55514164 -90 154 C-90.33 154 -90.66 154 -91 154 Z M61 159 C61.33 161.97 61.66 164.94 62 168 C62.33 168 62.66 168 63 168 C62.67 165.03 62.34 162.06 62 159 C61.67 159 61.34 159 61 159 Z M63 168 C63 169.98 63 171.96 63 174 C63.33 174 63.66 174 64 174 C64 172.02 64 170.04 64 168 C63.67 168 63.34 168 63 168 Z M64 175 C64 176.65 64 178.3 64 180 C64.33 180 64.66 180 65 180 C65 178.35 65 176.7 65 175 C64.67 175 64.34 175 64 175 Z M65 181 C65 182.98 65 184.96 65 187 C65.33 187 65.66 187 66 187 C66 185.02 66 183.04 66 181 C65.67 181 65.34 181 65 181 Z M-98 186 C-98 188.31 -98 190.62 -98 193 C-97.67 193 -97.34 193 -97 193 C-97 190.69 -97 188.38 -97 186 C-97.33 186 -97.66 186 -98 186 Z M66 187 C66 189.31 66 191.62 66 194 C66.33 194 66.66 194 67 194 C67 191.69 67 189.38 67 187 C66.67 187 66.34 187 66 187 Z M-99 193 C-99 195.64 -99 198.28 -99 201 C-98.67 201 -98.34 201 -98 201 C-98 198.36 -98 195.72 -98 193 C-98.33 193 -98.66 193 -99 193 Z M67 194 C67 196.31 67 198.62 67 201 C67.33 201 67.66 201 68 201 C68 198.69 68 196.38 68 194 C67.67 194 67.34 194 67 194 Z M-100 201 C-100.02714735 203.22909871 -100.04646254 205.45829367 -100.0625 207.6875 C-100.07410156 208.92886719 -100.08570313 210.17023438 -100.09765625 211.44921875 C-100.01478673 214.46235454 -99.70839449 217.08275339 -99 220 C-98.67 220 -98.34 220 -98 220 C-98.33 213.73 -98.66 207.46 -99 201 C-99.33 201 -99.66 201 -100 201 Z M-25 344 C-25.19110352 344.55872803 -25.38220703 345.11745605 -25.57910156 345.69311523 C-26.46522143 348.27603201 -27.35757582 350.85675498 -28.25 353.4375 C-28.55035156 354.31599609 -28.85070312 355.19449219 -29.16015625 356.09960938 C-30.07760117 358.74458357 -31.03225422 361.37305113 -32 364 C-32.45342773 365.30348389 -32.45342773 365.30348389 -32.91601562 366.63330078 C-33.79291592 368.92404395 -34.64722065 370.95409011 -36 373 C-40.54375118 374.81619854 -45.54545449 373.92320211 -50.375 373.5625 C-56.49740633 373.18190093 -62.61660187 372.82001616 -68.75 372.6875 C-70.62945312 372.63142578 -70.62945312 372.63142578 -72.546875 372.57421875 C-77.29382695 373.15953296 -80.51198034 375.13997543 -83.5 378.875 C-84.28022752 382.19096696 -83.55677566 384.01617999 -82 387 C-76.56164298 389.63156532 -70.93892871 389.26842094 -65.03759766 389.22705078 C-63.94432159 389.22734283 -62.85104553 389.22763489 -61.72463989 389.22793579 C-58.12103258 389.22654556 -54.51763357 389.21099852 -50.9140625 389.1953125 C-48.41157138 389.19158129 -45.9090788 389.18873483 -43.40658569 389.18673706 C-37.49936861 389.17988827 -31.59221805 389.16413491 -25.68503511 389.14403808 C-18.29654708 389.11944978 -10.90804974 389.10873951 -3.51953125 389.09765625 C9.65368359 389.07622121 22.82683708 389.04248102 36 389 C35.06509389 387.88849421 34.12715849 386.77953604 33.18798828 385.67163086 C32.66600861 385.05380234 32.14402893 384.43597382 31.60623169 383.79942322 C29.23370496 381.14153787 26.56853512 378.88505678 23.875 376.5625 C18.02636945 371.41425371 13.51902952 365.72039148 9.31005859 359.16821289 C7.97963951 357.22032087 6.76020325 355.57236985 5 354 C1.58232167 353.29026527 1.58232167 353.29026527 -0.76733398 353.2512207 C-5.28667423 352.74270227 -9.3155489 350.38377134 -13.375 348.4375 C-15.15218435 347.59975716 -16.93076334 346.76496444 -18.7109375 345.93359375 C-19.48743652 345.56290771 -20.26393555 345.19222168 -21.06396484 344.81030273 C-22.95769323 343.87130495 -22.95769323 343.87130495 -25 344 Z M-86 383 C-85 386 -85 386 -85 386 Z M-85 386 C-84 388 -84 388 -84 388 Z M-79 391 C-79 391.33 -79 391.66 -79 392 C-39.4 392 0.2 392 41 392 C41 391.67 41 391.34 41 391 C1.4 391 -38.2 391 -79 391 Z " fill="#249FC2" transform="translate(179,125)"/>
<path d="M0 0 C0.88171875 -0.03738281 1.7634375 -0.07476563 2.671875 -0.11328125 C7.96851505 -0.18421839 11.60223165 0.31221704 15.72241211 3.78393555 C20.75953194 9.03036513 22.86827251 13.68450154 22.99462891 20.98803711 C22.9663501 22.32427124 22.9663501 22.32427124 22.9375 23.6875 C22.92895996 24.61377197 22.92041992 25.54004395 22.91162109 26.49438477 C22.65151873 34.08603901 20.60319283 39.15947869 16.25 45.375 C14.99443113 48.55421787 14.99443113 48.55421787 14.25 51.375 C13.58333333 53.375 12.91666667 55.375 12.25 57.375 C11.59 57.375 10.93 57.375 10.25 57.375 C10.25 58.035 10.25 58.695 10.25 59.375 C10.91 59.375 11.57 59.375 12.25 59.375 C12.25 62.675 12.25 65.975 12.25 69.375 C7.30129482 70.36631455 2.58343373 70.52599275 -2.4375 70.5 C-3.19611328 70.50386719 -3.95472656 70.50773437 -4.73632812 70.51171875 C-7.9977639 70.50596158 -10.63513748 70.41328751 -13.75 69.375 C-13.75 63.105 -13.75 56.835 -13.75 50.375 C-14.41 50.375 -15.07 50.375 -15.75 50.375 C-15.75 49.055 -15.75 47.735 -15.75 46.375 C-16.41 46.045 -17.07 45.715 -17.75 45.375 C-18.375 42.8125 -18.375 42.8125 -18.75 40.375 C-19.41 40.375 -20.07 40.375 -20.75 40.375 C-24.14150595 34.93050244 -24.29935426 30.22231614 -24.3125 24 C-24.34923828 23.0925 -24.38597656 22.185 -24.42382812 21.25 C-24.46917088 14.25713946 -22.52390699 10.41756164 -17.75 5.375 C-17.09 4.715 -16.43 4.055 -15.75 3.375 C-14.76 3.375 -13.77 3.375 -12.75 3.375 C-12.75 2.715 -12.75 2.055 -12.75 1.375 C-8.50595906 -0.03968031 -4.44726029 0.07028716 0 0 Z " fill="#23A1BF" transform="translate(165.75,25.625)"/>
<path d="M0 0 C2.0186686 0.76494009 4.01759295 1.58297174 6 2.4375 C13.62449515 5.60914663 20.85690501 5.88501406 29 6 C29 7.32 29 8.64 29 10 C24.82352563 14.0604612 21.43546223 15.10260997 15.76171875 15.140625 C0.50911695 15.43403152 -11.54663465 18.9107993 -25.16723633 25.85205078 C-29.68640643 28.10453119 -29.68640643 28.10453119 -33 27 C-30.73420938 24.66111936 -28.50080572 22.41071881 -25.98046875 20.34375 C-20.57645262 15.87668238 -16.71396002 11.13818577 -12.91894531 5.3046875 C-9.37643939 -0.13339816 -6.39688971 -0.92521111 0 0 Z M-8.74609375 3.6875 C-9.30425781 4.450625 -9.86242187 5.21375 -10.4375 6 C-11.035625 6.81339844 -11.63375 7.62679688 -12.25 8.46484375 C-14.62456163 11.9047779 -16.87267065 15.40216649 -19 19 C-18.40574219 18.81824219 -17.81148437 18.63648438 -17.19921875 18.44921875 C-15.42950416 17.91252459 -13.65709028 17.38469157 -11.8828125 16.86328125 C-10.09737126 16.3286166 -8.31912379 15.76832806 -6.5546875 15.16796875 C0.37385786 12.96343159 7.05175159 12.56513168 14.27514648 12.46630859 C19.25841055 12.33999402 22.62229047 11.65059385 27 9 C27 8.67 27 8.34 27 8 C25.38544922 7.97873047 25.38544922 7.97873047 23.73828125 7.95703125 C14.84567901 7.71072426 7.81610467 6.75555051 -0.36328125 3.05859375 C-3.71435388 1.71320015 -5.98864156 1.02257976 -8.74609375 3.6875 Z " fill="#1EAFAC" transform="translate(218,445)"/>
<path d="M0 0 C4.70256847 2.13976062 9.141056 4.67769461 13.5703125 7.32421875 C16.80095575 9.24713297 20.06569251 11.07267878 23.37109375 12.86328125 C24.26570313 13.34796875 25.1603125 13.83265625 26.08203125 14.33203125 C26.71367187 14.67234375 27.3453125 15.01265625 27.99609375 15.36328125 C27.99609375 16.35328125 27.99609375 17.34328125 27.99609375 18.36328125 C24.10960846 17.12460611 20.45013901 15.6886763 16.74609375 13.98828125 C5.19889343 9.16386381 -6.95722746 6.97233301 -19.43432617 6.69042969 C-23.35785142 6.58481663 -26.53268394 6.27572826 -30.00390625 4.36328125 C-30.81640625 1.73828125 -30.81640625 1.73828125 -31.00390625 -0.63671875 C-21.87406841 -6.07787598 -9.58761197 -3.57746715 0 0 Z M-27.8671875 0.87890625 C-28.24230469 1.36875 -28.61742188 1.85859375 -29.00390625 2.36328125 C-27.0009294 4.3662581 -23.01405807 3.68473883 -20.25390625 3.80078125 C-11.026609 4.26000566 -2.05682023 5.51305066 6.99609375 7.36328125 C-1.62674485 0.27878944 -12.57750034 -0.69517395 -23.296875 -0.96484375 C-26.04874221 -0.87533169 -26.04874221 -0.87533169 -27.8671875 0.87890625 Z " fill="#21A6B8" transform="translate(119.00390625,444.63671875)"/>
<path d="M0 0 C1.75032844 0.14183696 3.50025534 0.28863429 5.25 0.4375 C6.71179688 0.55931641 6.71179688 0.55931641 8.203125 0.68359375 C10.56461753 0.95074584 12.71901065 1.35371968 15 2 C14.67 2.66 14.34 3.32 14 4 C9.69002151 5.18435359 6.06120391 5.45480168 1.9375 3.6875 C1.298125 3.130625 0.65875 2.57375 0 2 C0 1.34 0 0.68 0 0 Z " fill="#2795D0" transform="translate(157,201)"/>
<path d="M0 0 C0.33 0 0.66 0 1 0 C1 6.6 1 13.2 1 20 C-1 18 -1 18 -1.23046875 14.375 C-1.22647678 12.9166018 -1.2117184 11.45820257 -1.1875 10 C-1.18685547 9.26265625 -1.18621094 8.5253125 -1.18554688 7.765625 C-1.14050904 2.28101809 -1.14050904 2.28101809 0 0 Z " fill="#249FC1" transform="translate(214,268)"/>
<path d="M0 0 C2.475 0.495 2.475 0.495 5 1 C4.67 2.32 4.34 3.64 4 5 C2.68 4.67 1.36 4.34 0 4 C0 2.68 0 1.36 0 0 Z " fill="#20A9B4" transform="translate(239,362)"/>
<path d="M0 0 C0.99 0 1.98 0 3 0 C3 0.66 3 1.32 3 2 C2.01 2 1.02 2 0 2 C0 1.34 0 0.68 0 0 Z " fill="#2797CE" transform="translate(188,197)"/>
<path d="M0 0 C0.99 0 1.98 0 3 0 C3 0.66 3 1.32 3 2 C2.01 1.67 1.02 1.34 0 1 C0 0.67 0 0.34 0 0 Z " fill="#2795D0" transform="translate(112,253)"/>
<path d="M0 0 C0.66 0 1.32 0 2 0 C2 0.66 2 1.32 2 2 C1.34 2 0.68 2 0 2 C0 1.34 0 0.68 0 0 Z " fill="#269ACA" transform="translate(113,301)"/>
<path d="M0 0 C0.66 0 1.32 0 2 0 C2 0.66 2 1.32 2 2 C1.34 2 0.68 2 0 2 C0 1.34 0 0.68 0 0 Z " fill="#2795D0" transform="translate(123,244)"/>
<path d="M0 0 C0.66 0 1.32 0 2 0 C2 0.66 2 1.32 2 2 C1.34 2 0.68 2 0 2 C0 1.34 0 0.68 0 0 Z " fill="#2990D7" transform="translate(171,133)"/>
<path d="M0 0 C0.33 0.66 0.66 1.32 1 2 C0.34 1.67 -0.32 1.34 -1 1 C-0.67 0.67 -0.34 0.34 0 0 Z " fill="#20AAB5" transform="translate(94,499)"/>
<path d="" fill="#2699CB" transform="translate(0,0)"/>
<path d="" fill="#20AAB5" transform="translate(0,0)"/>
<path d="" fill="#20AAB5" transform="translate(0,0)"/>
</svg>
